<svg width="24.000000" height="24.000000" viewBox="0 0 24 24" fill="none" xmlns="http://www.w3.org/2000/svg" xmlns:xlink="http://www.w3.org/1999/xlink">
	<desc>
			Created with Pixso.
	</desc>
	<defs/>
	<path id="shape" d="M12 17L9 20M12 17L15 20M12 7L9 4M12 7L15 4M12 3L12 7L12 12L12 17L12 21M16.33 14.49L17.42 18.59M16.33 14.49L20.42 13.4M7.66 9.49L3.57 10.59M7.66 9.49L6.57 5.4M4.2 7.5L7.66 9.49L12 12M12 12L16.33 14.49L19.79 16.5M16.33 9.49L20.42 10.59M16.33 9.49L17.42 5.4M7.66 14.49L6.57 18.59M7.66 14.49L3.57 13.4M4.2 16.5L7.66 14.49L12 12M12 12L16.33 9.49L19.79 7.5" stroke="#FFFFFF" stroke-opacity="1.000000" stroke-width="1.500000" stroke-linejoin="round" stroke-linecap="round"/>
</svg>
