<svg width="24.000000" height="24.000000" viewBox="0 0 24 24" fill="none" xmlns="http://www.w3.org/2000/svg" xmlns:xlink="http://www.w3.org/1999/xlink">
	<desc>
			Created with Pixso.
	</desc>
	<defs>
		<clipPath id="clip1_571">
			<rect id="curved / eye-closed" rx="-0.500000" width="23.000000" height="23.000000" transform="translate(0.500000 0.500000)" fill="white" fill-opacity="0"/>
		</clipPath>
	</defs>
	<g clip-path="url(#clip1_571)">
		<path id="shape" d="M9.76 5.29C10.46 5.1 11.21 5 12 5C15.75 5 18.56 7.44 20.23 9.43C21.48 10.93 21.48 13.06 20.23 14.56C20.04 14.79 19.83 15.02 19.61 15.26M12.5 9.04C13.75 9.25 14.74 10.24 14.95 11.5M3 3L21 21M11.5 14.95C10.41 14.77 9.52 14.01 9.17 13M14.27 18.69C13.56 18.88 12.8 19 12 19C8.24 19 5.43 16.55 3.76 14.56C2.51 13.06 2.51 10.93 3.76 9.43C3.94 9.22 4.14 9 4.34 8.77" stroke="#001A72" stroke-opacity="1.000000" stroke-width="1.500000" stroke-linejoin="round"/>
	</g>
</svg>
