<svg width="24.000000" height="24.000000" viewBox="0 0 24 24" fill="none" xmlns="http://www.w3.org/2000/svg" xmlns:xlink="http://www.w3.org/1999/xlink">
	<desc>
			Created with Pixso.
	</desc>
	<defs>
		<clipPath id="clip1_568">
			<rect id="curved / eye-open" rx="-0.500000" width="23.000000" height="23.000000" transform="translate(0.500000 0.500000)" fill="white" fill-opacity="0"/>
		</clipPath>
	</defs>
	<g clip-path="url(#clip1_568)">
		<path id="shape" d="M12 5C15.75 5 18.56 7.44 20.23 9.43C21.48 10.93 21.48 13.06 20.23 14.56C18.56 16.55 15.75 19 12 19C8.24 19 5.43 16.55 3.76 14.56C2.51 13.06 2.51 10.93 3.76 9.43C5.43 7.44 8.24 5 12 5ZM12 15C10.34 15 9 13.65 9 12C9 10.34 10.34 9 12 9C13.65 9 15 10.34 15 12C15 13.65 13.65 15 12 15Z" stroke="#001A72" stroke-opacity="1.000000" stroke-width="1.500000" stroke-linejoin="round"/>
	</g>
</svg>
