<svg width="200" height="14" viewBox="0 0 200 14" fill="none" xmlns="http://www.w3.org/2000/svg">
<path fill-rule="evenodd" clip-rule="evenodd" d="M80.1282 0.719269C4.76119 3.07327 4.29119 3.10327 6.54919 5.34827C8.53119 7.31827 169.439 4.56927 171.561 2.52927C172.075 2.03527 172.15 1.28627 171.729 0.865269C170.652 -0.214731 112.963 -0.306731 80.1282 0.719269ZM143.128 6.35127C111.45 6.80927 0.906186 10.4873 0.289186 11.1033C-1.58081 12.9733 5.34319 13.5693 29.1282 13.5863C43.7032 13.5963 72.7282 13.1233 93.6282 12.5343C114.528 11.9453 146.891 11.1563 165.546 10.7813C190.044 10.2883 199.572 9.77327 199.853 8.92727C200.563 6.78927 179.377 5.82727 143.128 6.35127Z" fill="url(#paint0_linear_506_30)"/>
<defs>
<linearGradient id="paint0_linear_506_30" x1="0" y1="6.79321" x2="199.87" y2="6.79321" gradientUnits="userSpaceOnUse">
<stop stop-color="#A855F7"/>
<stop offset="1" stop-color="#EC4899"/>
</linearGradient>
</defs>
</svg>
