<svg width="168.000000" height="67.000000" viewBox="0 0 168 67" fill="none" xmlns="http://www.w3.org/2000/svg" xmlns:xlink="http://www.w3.org/1999/xlink">
	<desc>
			Created with Pixso.
	</desc>
	<defs>
		<clipPath id="clip110_4729">
			<rect id="logo1 1 (traced)" rx="-0.500000" width="167.000000" height="66.000000" transform="translate(0.500000 0.500000)" fill="white" fill-opacity="0"/>
		</clipPath>
	</defs>
	<rect id="logo1 1 (traced)" rx="-0.500000" width="167.000000" height="66.000000" transform="translate(0.500000 0.500000)" fill="#FFFFFF" fill-opacity="0"/>
	<g clip-path="url(#clip110_4729)">
		<path id="Vector" d="M37.06 10.22C36.86 10.27 36.65 10.87 36.23 12.5C35.8 14.24 35.62 14.73 35.36 14.85C35.09 14.96 35.15 14.98 35.54 14.93C36.23 14.85 37.27 15.38 37.63 16C38.1 16.79 38 17.76 37.4 18.43L36.91 18.99L34.32 19.08C32.75 19.13 32.19 19.18 32.89 19.21C33.99 19.26 35.34 19.49 34.75 19.54C34.45 19.56 34.44 19.62 33.78 22.2C33.28 24.22 33.07 24.12 37.65 24.12C41.13 24.12 41.39 24.14 41.94 24.46C42.45 24.76 42.6 24.97 42.78 25.75C42.79 25.8 42.86 25.96 42.93 26.13C43.01 26.29 42.98 26.5 42.88 26.63C42.78 26.75 42.73 26.88 42.78 26.93C42.83 26.96 42.63 27.25 42.35 27.56L41.85 28.12L36.99 28.16C32.72 28.21 31.45 28.33 32.44 28.57C32.69 28.64 32.69 28.65 32.44 28.67C32.13 28.69 32.13 28.69 31.57 31.02C31.22 32.5 31.19 32.83 31.37 33.01C31.53 33.17 32.29 33.23 34.34 33.23C37.25 33.27 37.85 33.4 38.33 34.11C38.75 34.78 38.66 36.28 38.15 36.79C37.65 37.29 36.96 37.36 32.14 37.36C29.47 37.36 27.81 37.41 28.47 37.47C29.11 37.52 29.7 37.62 29.77 37.68C29.82 37.75 29.64 38.73 29.36 39.87C28.95 41.47 28.88 41.97 29.04 42.07C29.16 42.13 28.95 42.22 28.52 42.27C28.1 42.3 31.42 42.33 35.85 42.33C40.31 42.33 43.64 42.28 43.27 42.22C42.76 42.13 42.71 42.1 43.06 42.07C43.44 42.05 43.54 41.96 43.67 41.43C44.85 36.98 45.81 32.84 45.68 32.79C45.55 32.75 45.5 30.5 45.5 25.57L45.5 18.43L47.51 18.38L49.52 18.33L50.05 16.22C50.46 14.65 50.54 14.08 50.4 13.98C50.28 13.92 48.55 13.85 46.54 13.85C43.22 13.85 42.5 13.77 42.99 13.46C43.08 13.41 44.62 13.36 46.47 13.35C50.81 13.31 50.79 13.31 51.04 12.35C51.48 10.61 51.48 10.43 51.07 10.43C50.76 10.43 50.74 10.4 50.94 10.27C51.19 10.1 37.65 10.05 37.06 10.22Z" fill="#964096" fill-opacity="1.000000" fill-rule="nonzero"/>
		<path id="Vector" d="M18.82 10.18C18.87 10.23 18.66 11.26 18.38 12.47C18.03 13.88 17.92 14.67 18.03 14.67C18.13 14.67 18.1 14.75 17.97 14.85C17.78 14.98 17.85 14.99 18.3 14.94C19.2 14.85 19.32 14.78 19.98 14.13C20.54 13.56 20.6 13.41 20.6 12.65C20.6 11.57 20.34 11 19.66 10.64C19.37 10.48 19.12 10.3 19.12 10.23C19.12 10.15 19.04 10.1 18.92 10.1C18.82 10.1 18.77 10.13 18.82 10.18Z" fill="#C14096" fill-opacity="1.000000" fill-rule="nonzero"/>
		<path id="Vector" d="M23.7 10.54C23 11.1 22.75 11.6 22.75 12.47C22.75 13.28 23.06 13.97 23.69 14.5L24.15 14.91L30.13 14.94C35.26 14.96 36.08 14.93 35.92 14.73C35.64 14.41 36.68 10.31 37.07 10.22C37.22 10.17 34.4 10.13 30.81 10.12L24.28 10.1L23.7 10.54Z" fill="#C14096" fill-opacity="1.000000" fill-rule="nonzero"/>
		<path id="Vector" d="M28.27 19.35C27.54 19.74 26.89 20.52 26.77 21.15C26.64 21.82 26.9 22.8 27.35 23.22C28.19 24.04 28.14 24.04 31.02 24.09C32.77 24.12 33.79 24.09 33.79 23.97C33.79 23.89 33.71 23.8 33.59 23.76C33.46 23.71 33.51 23.29 33.78 22.23C34.44 19.61 34.45 19.56 34.75 19.54C35.71 19.48 33.46 19.23 31.32 19.17C29.16 19.08 28.68 19.12 28.27 19.35Z" fill="#C14096" fill-opacity="1.000000" fill-rule="nonzero"/>
		<path id="Vector" d="M23.16 28.49C21.41 29.37 21.13 31.34 22.55 32.61C23.14 33.15 23.19 33.17 24.56 33.17C26.41 33.17 26.62 33.02 27.53 31.13C27.68 30.82 27.28 29.53 26.9 29.13C26.11 28.25 24.25 27.94 23.16 28.49Z" fill="#C14096" fill-opacity="1.000000" fill-rule="nonzero"/>
		<path id="Vector" d="M31.98 28.33C31.98 28.44 31.9 28.49 31.81 28.44C31.5 28.25 30.58 28.72 30.13 29.31C29.77 29.75 29.67 30.06 29.67 30.67C29.67 31.12 29.75 31.64 29.85 31.83C30.1 32.31 31.01 33.09 31.32 33.09C31.5 33.09 31.52 33.05 31.35 32.96C31.19 32.84 31.24 32.45 31.57 31.03C32.13 28.67 32.13 28.69 32.44 28.67C32.67 28.67 32.67 28.64 32.47 28.57C32.34 28.52 32.18 28.39 32.11 28.29C32.03 28.18 31.98 28.18 31.98 28.33Z" fill="#C14096" fill-opacity="1.000000" fill-rule="nonzero"/>
		<path id="Vector" d="M14.9 37.51C14.45 37.6 14.04 37.86 13.7 38.22C13.23 38.74 13.18 38.87 13.18 39.92C13.18 41.01 13.22 41.09 13.76 41.61C14.37 42.2 14.9 42.38 16.09 42.38C17.31 42.38 18.13 41.87 18.67 40.77C19.02 40.06 19.02 39.64 18.69 38.96C18.28 38.17 17.85 37.8 17.01 37.55C16.17 37.29 15.87 37.29 14.9 37.51Z" fill="#C14096" fill-opacity="1.000000" fill-rule="nonzero"/>
		<path id="Vector" d="M21.53 37.51C20.75 37.68 20.52 37.86 20.01 38.66C19.75 39.07 19.61 39.53 19.61 40C19.61 40.65 19.7 40.83 20.36 41.52L21.11 42.3L23.79 42.35C26.62 42.41 29.36 42.27 29.03 42.07C28.88 41.97 28.96 41.42 29.36 39.87C29.64 38.73 29.82 37.75 29.77 37.68C29.44 37.37 22.75 37.23 21.53 37.51Z" fill="#C14096" fill-opacity="1.000000" fill-rule="nonzero"/>
		<path id="Vector" d="M76.3 10.22C76.02 10.28 75.85 10.69 75.49 12.34C75.36 12.91 75.21 13.2 75.03 13.22C74.88 13.23 75.57 13.3 76.56 13.38C77.55 13.44 78.42 13.57 78.52 13.67C78.62 13.77 78.8 13.85 78.93 13.85C79.21 13.85 80.62 14.49 80.88 14.73C80.98 14.83 81.24 15.03 81.44 15.16C82.45 15.82 83.75 17.41 83.96 18.22C84.03 18.53 84.01 18.56 83.81 18.4C83.68 18.3 83.58 18.12 83.58 18.01C83.58 17.67 81.42 15.58 80.53 15.04C79.1 14.19 77.83 13.85 76.11 13.85C75.26 13.85 74.7 13.92 74.81 14C74.98 14.1 74.83 14.93 74.05 17.94L73.1 21.76L73.79 23.55C74.17 24.53 74.61 25.85 74.76 26.45C74.93 27.07 75.11 27.51 75.17 27.43C75.24 27.37 75.46 26.78 75.64 26.16C75.83 25.52 76.28 24.28 76.63 23.39L77.27 21.76L79.03 21.71C80.66 21.68 80.78 21.69 80.78 21.99C80.78 22.21 77.9 29.6 75.39 35.83C75.29 36.05 71.71 36.12 71.71 35.88C71.71 35.79 72.06 34.86 72.47 33.82L73.23 31.9L72.44 29.86C71.83 28.31 71.61 27.9 71.51 28.13C71.4 28.39 68.91 38.37 68.91 38.55C68.91 38.58 71.3 38.63 74.24 38.66C78.9 38.71 79.61 38.74 80.04 39C80.32 39.15 80.63 39.28 80.75 39.28C80.85 39.28 80.95 39.35 80.95 39.45C80.95 39.53 81.04 39.61 81.16 39.61C81.44 39.61 81.98 40.02 82.83 40.86C83.76 41.81 83.83 41.91 84.05 42.53C84.33 43.32 84.28 43.36 83.85 42.66C83.19 41.6 81.93 40.39 81.29 40.18C81.11 40.13 80.95 40 80.95 39.92C80.95 39.84 80.85 39.77 80.75 39.77C80.63 39.77 80.32 39.66 80.04 39.51C79.16 39.07 76.94 38.91 72.8 39C70.64 39.05 68.83 39.14 68.79 39.18C68.75 39.22 68.38 40.55 67.99 42.15C67.39 44.43 67.29 45.07 67.46 45.17C67.58 45.25 68.23 45.31 68.93 45.31C70.49 45.31 70.81 45.56 70.74 46.78C70.71 47.45 70.16 47.66 68.27 47.76L66.54 47.84L66.17 49.29C65.98 50.09 65.71 50.81 65.58 50.87C65.41 50.99 65.43 51.02 65.66 51.02C66.19 51.02 66.67 51.62 66.67 52.26C66.67 53.09 66.17 53.46 64.97 53.5C64.43 53.51 64.26 53.55 64.56 53.58L65.08 53.64L64.69 55.14C64.48 55.98 64.29 56.66 64.29 56.68C64.29 56.82 78.18 56.69 78.8 56.55C79.54 56.38 80.83 55.83 81.24 55.5C81.83 55.06 83.09 53.84 83.09 53.73C83.09 53.66 83.27 53.37 83.49 53.09C84.44 51.8 84.41 52.45 84.41 33.53C84.41 17.21 84.39 16.13 84.11 15.29C83.29 12.81 81.29 10.9 78.88 10.28C78.23 10.1 76.84 10.07 76.3 10.22Z" fill="#1540C1" fill-opacity="1.000000" fill-rule="nonzero"/>
		<path id="Vector" d="M88.36 26.08L88.36 33.25L90.18 33.25L91.99 33.25L92.02 29.91L92.07 26.58L92.98 27.92L93.89 29.26L94.96 29.26L96.01 29.26L96.94 27.97L97.84 26.68L97.89 29.97L97.93 33.25L99.74 33.25L101.55 33.25L101.55 26.08L101.55 18.91L100.17 18.91L98.77 18.91L96.91 21.59C95.88 23.08 95.01 24.28 94.96 24.28C94.91 24.28 94.41 23.6 93.85 22.77C93.28 21.94 92.45 20.71 91.99 20.08L91.15 18.91L89.77 18.91L88.36 18.91L88.36 26.08Z" fill="#1540C1" fill-opacity="1.000000" fill-rule="nonzero"/>
		<path id="Vector" d="M124.8 26.16L124.8 33.25L126.45 33.25L128.08 33.25L128.13 31.25L128.18 29.26L128.67 29.96C128.95 30.33 129.6 31.25 130.14 31.95L131.1 33.25L133.06 33.25C134.13 33.25 135.02 33.19 135.02 33.12C135.02 33.01 132.14 29.14 131.3 28.15L130.92 27.69L131.94 26.27C133.49 24.15 134.69 22.39 134.69 22.28C134.69 22.21 133.85 22.17 132.85 22.17L130.98 22.17L129.58 24.17L128.18 26.16L128.13 22.61L128.1 19.07L126.45 19.07L124.8 19.07L124.8 26.16Z" fill="#1540C1" fill-opacity="1.000000" fill-rule="nonzero"/>
		<path id="Vector" d="M151.14 20L150.02 20.06L150.02 21.19L150.02 22.33L149.28 22.33L148.54 22.33L148.54 23.71L148.54 25.1L149.28 25.1L150.02 25.1L150.02 27.82C150.02 30.87 150.16 31.54 150.86 32.35C151.59 33.17 152.46 33.43 154.23 33.38L155.71 33.33L155.76 31.93L155.81 30.53L155.02 30.59C154.38 30.66 154.14 30.61 153.78 30.32L153.32 29.97L153.32 27.53L153.32 25.1L154.48 25.1L155.63 25.1L155.63 23.71L155.63 22.33L154.48 22.33L153.32 22.33L153.32 21.11L153.32 19.88L152.79 19.92C152.5 19.93 151.75 19.96 151.14 20Z" fill="#1540C1" fill-opacity="1.000000" fill-rule="nonzero"/>
		<path id="Vector" d="M106.15 22.26C105.13 22.57 103.98 23.62 103.42 24.72C102.82 25.93 102.69 28.13 103.12 29.58C103.61 31.28 104.85 32.68 106.32 33.17C107.41 33.53 109.2 33.5 110.08 33.07C110.47 32.89 110.79 32.66 110.79 32.58C110.79 32.5 110.87 32.44 110.95 32.44C111.05 32.44 111.12 32.61 111.12 32.84L111.12 33.25L112.77 33.25L114.41 33.25L114.41 27.71L114.41 22.17L112.77 22.17L111.12 22.17L111.12 22.59L111.12 23L110.67 22.7C110.41 22.52 110 22.31 109.75 22.2C109.14 21.94 107.09 21.97 106.15 22.26ZM110.21 25.78C111 26.6 111.25 27.46 110.9 28.39C110.47 29.6 109.71 30.15 108.5 30.15C107.09 30.15 106.01 28.7 106.25 27.12C106.34 26.52 106.52 26.19 107 25.72C107.57 25.15 107.69 25.1 108.56 25.1C109.45 25.1 109.55 25.13 110.21 25.78Z" fill="#1540C1" fill-opacity="1.000000" fill-rule="nonzero"/>
		<path id="Vector" d="M120.13 22.34C119.61 22.62 119.51 22.64 119.43 22.41C119.34 22.21 119.03 22.17 117.86 22.17L116.39 22.17L116.39 27.71L116.39 33.25L118.04 33.25L119.69 33.25L119.69 29.94C119.69 26.39 119.76 26.13 120.56 25.52C120.93 25.26 121.27 25.18 122.1 25.18L123.17 25.18L123.12 23.63L123.07 22.08L121.92 22.05C121.02 22.02 120.61 22.08 120.13 22.34Z" fill="#1540C1" fill-opacity="1.000000" fill-rule="nonzero"/>
		<path id="Vector" d="M139.82 22.18C138.98 22.43 137.59 23.37 137.11 23.99C136.47 24.86 136.21 25.46 136.01 26.62C135.53 29.31 136.65 31.69 138.94 32.79C139.97 33.3 140.17 33.33 141.7 33.33C143.13 33.33 143.46 33.28 144.25 32.91C144.75 32.66 145.44 32.22 145.77 31.93C146.4 31.36 147.27 29.92 147.11 29.76C147.04 29.71 146.23 29.66 145.29 29.66C143.77 29.66 143.53 29.71 143.08 30.02C142.7 30.3 142.36 30.4 141.7 30.4C140.76 30.4 140.15 30.09 139.67 29.37L139.44 29.01L143.39 29.01C147.83 29.01 147.55 29.09 147.55 27.72C147.55 25.38 146.28 23.34 144.27 22.44C143.39 22.05 140.76 21.9 139.82 22.18ZM142.34 24.92C142.67 24.94 143.76 25.93 143.76 26.22C143.76 26.34 143.08 26.4 141.7 26.4C140.56 26.4 139.64 26.34 139.64 26.26C139.64 25.69 141.04 24.74 141.7 24.86C141.88 24.89 142.16 24.92 142.34 24.92Z" fill="#1540C1" fill-opacity="1.000000" fill-rule="nonzero"/>
		<path id="Vector" d="M64.94 10.22C64.77 10.25 64.57 10.59 64.48 11.05C64 12.91 63.98 12.97 63.52 13.15C63.17 13.28 64.48 13.33 68.83 13.35C72.01 13.35 74.75 13.31 74.94 13.26C75.21 13.2 75.34 12.95 75.49 12.32C75.85 10.69 76.02 10.28 76.3 10.22C76.44 10.17 74.02 10.13 70.89 10.13C67.76 10.13 65.08 10.17 64.94 10.22Z" fill="#4040C1" fill-opacity="1.000000" fill-rule="nonzero"/>
		<path id="Vector" d="M63.45 14C63.65 14.13 63.53 14.73 62.83 17.55C62.36 19.41 61.94 21.07 61.89 21.22C61.8 21.46 61.92 21.51 62.56 21.51C63.39 21.51 64.19 21.82 64.77 22.34L65.12 22.67L65.12 22.17L65.12 21.68L66.77 21.68L68.41 21.68L68.41 27.22L68.41 32.76L66.77 32.76L65.12 32.76L65.12 32.34L65.12 31.93L64.67 32.24C63.52 33.04 61.23 33.15 59.89 32.5L59.18 32.16L59.03 32.75C57.96 36.72 57.66 38.17 57.88 38.3C58.01 38.4 57.85 38.47 57.37 38.52C56.96 38.55 59.38 38.58 62.76 38.6L68.88 38.63L70.15 33.45C70.85 30.61 71.48 28.18 71.55 28.05C71.61 27.92 71.23 26.7 70.62 25.12C70.05 23.63 69.57 22.25 69.57 22.03C69.57 21.69 69.62 21.68 71.35 21.68L73.11 21.68L74.07 17.89C74.81 14.94 74.98 14.1 74.81 13.98C74.7 13.92 72.04 13.85 68.91 13.85C65.55 13.85 63.32 13.92 63.45 14Z" fill="#4040C1" fill-opacity="1.000000" fill-rule="nonzero"/>
		<path id="Vector" d="M61.39 24.92C60.96 25.18 60.85 25.39 60.58 26.55C60.3 27.81 60.3 27.92 60.55 28.44C61.08 29.53 62.73 30.02 63.78 29.4C65.41 28.44 65.45 25.83 63.83 24.89C63.19 24.53 62.04 24.53 61.39 24.92Z" fill="#4040C1" fill-opacity="1.000000" fill-rule="nonzero"/>
		<path id="Vector" d="M57.06 40.5C56.63 42.22 56.63 42.22 57.12 42.22C57.6 42.22 57.66 42.46 57.25 42.69C57.04 42.8 56.96 43.05 56.96 43.59C56.96 44.21 57.04 44.42 57.45 44.78L57.93 45.23L62.81 45.28C65.53 45.3 67.57 45.25 67.46 45.18C67.29 45.07 67.38 44.5 67.92 42.36C68.28 40.9 68.63 39.56 68.68 39.4C68.76 39.14 68.41 39.12 63.09 39.12L57.4 39.12L57.06 40.5Z" fill="#4040C1" fill-opacity="1.000000" fill-rule="nonzero"/>
		<path id="Vector" d="M54.91 47.87C55.16 47.92 55.14 48.07 54.83 49.31C54.63 50.12 54.42 50.69 54.3 50.69C54.19 50.69 54.04 50.77 53.97 50.89C53.91 51 53.92 51.02 54.04 50.95C54.16 50.89 54.24 50.92 54.24 51C54.24 51.1 54.32 51.18 54.42 51.18C54.5 51.18 54.55 51.13 54.52 51.05C54.47 50.99 56.45 50.97 58.9 51.02C63.34 51.1 65.48 51.04 65.69 50.82C65.76 50.77 65.98 50.06 66.19 49.24L66.57 47.76L60.6 47.78C57.34 47.79 54.76 47.82 54.91 47.87Z" fill="#4040C1" fill-opacity="1.000000" fill-rule="nonzero"/>
		<path id="Vector" d="M55.93 54.04C55.18 54.82 55.18 55.7 55.9 56.3C56.32 56.64 56.58 56.72 57.35 56.72C58.36 56.72 58.69 56.51 59.17 55.57C59.61 54.67 58.47 53.46 57.17 53.46C56.58 53.46 56.38 53.56 55.93 54.04Z" fill="#4040C1" fill-opacity="1.000000" fill-rule="nonzero"/>
		<path id="Vector" d="M60.76 54.02C60.12 54.61 60.01 55.18 60.39 55.96C60.66 56.58 61.14 56.72 62.81 56.72L64.28 56.72L64.44 56.11C64.52 55.78 64.7 55.09 64.84 54.59L65.07 53.66L64.33 53.56C63.93 53.51 63.09 53.46 62.46 53.46C61.42 53.46 61.31 53.5 60.76 54.02Z" fill="#4040C1" fill-opacity="1.000000" fill-rule="nonzero"/>
		<path id="Vector" d="M52.67 10.27C51.94 10.31 51.57 10.38 51.81 10.4C52.17 10.43 52.26 10.49 52.19 10.71C52.14 10.87 51.99 11.47 51.84 12.06C51.7 12.65 51.48 13.17 51.38 13.23C51.04 13.46 62.81 13.38 63.42 13.17C64 12.95 63.98 12.97 64.47 11.05C64.57 10.59 64.77 10.25 64.94 10.22C65.35 10.1 54.15 10.15 52.67 10.27Z" fill="#6B40C1" fill-opacity="1.000000" fill-rule="nonzero"/>
		<path id="Vector" d="M52.9 13.97L51.33 14.03L50.86 15.94C50.61 16.98 50.36 17.98 50.31 18.12C50.25 18.38 50.38 18.42 51.38 18.42C52.01 18.42 52.87 18.53 53.3 18.68C54.33 19.02 55.44 20.03 56 21.15C56.4 21.95 56.46 22.28 56.46 23.47C56.46 25.13 56.08 26.11 55.01 27.19C54.02 28.2 52.98 28.52 50.86 28.52L49.13 28.52L49.13 30.64L49.13 32.76L47.89 32.76L46.67 32.76L46.5 33.36C45.96 35.42 45.15 38.6 45.1 38.87C45.07 39.05 44.87 39.84 44.67 40.62L44.31 42.04L43.62 42.1C43.06 42.15 45.43 42.28 46.57 42.27C46.75 42.27 49.09 42.25 51.78 42.23L56.64 42.22L56.92 41.03C57.09 40.39 57.25 39.69 57.32 39.48L57.4 39.12L51.3 39.15C45.27 39.2 45.22 39.2 45.33 38.87C45.45 38.55 45.58 38.55 50.4 38.61C55.29 38.66 58.26 38.55 57.86 38.3C57.7 38.21 57.81 37.51 58.41 35.19L59.16 32.21L58.49 31.49C58.13 31.1 57.63 30.37 57.4 29.86C57 29.03 56.96 28.75 56.96 27.06C56.96 25.49 57.02 25.05 57.3 24.43C58.03 22.88 59.48 21.79 61.08 21.56C61.75 21.48 61.84 21.42 61.97 20.88C63.22 16.2 63.67 14.13 63.45 14C63.24 13.87 56.58 13.85 52.9 13.97Z" fill="#6B40C1" fill-opacity="1.000000" fill-rule="nonzero"/>
		<path id="Vector" d="M49.23 22.33C49.17 22.62 49.13 23.4 49.13 24.06L49.13 25.26L50.28 25.26C51.57 25.26 52.47 24.97 52.74 24.48C53.07 23.88 52.95 22.88 52.52 22.38C52.16 21.95 52.01 21.92 50.73 21.87L49.34 21.81L49.23 22.33Z" fill="#6B40C1" fill-opacity="1.000000" fill-rule="nonzero"/>
		<path id="Vector" d="M60.48 25.85C60.29 26.35 60.07 27.84 60.22 27.71C60.37 27.58 60.86 25.56 60.76 25.47C60.72 25.43 60.58 25.59 60.48 25.85Z" fill="#6B40C1" fill-opacity="1.000000" fill-rule="nonzero"/>
		<path id="Vector" d="M53.23 48.23C52.39 49.06 52.69 50.47 53.76 50.84C54.06 50.94 54.2 50.94 54.16 50.86C54.09 50.76 54.16 50.69 54.27 50.69C54.42 50.69 54.62 50.2 54.83 49.32L55.18 47.95L54.83 47.86C54.12 47.66 53.71 47.78 53.23 48.23Z" fill="#6B40C1" fill-opacity="1.000000" fill-rule="nonzero"/>
		<path id="Vector" d="M45.5 25.57L45.5 32.76L47.23 32.76L48.96 32.76L48.96 30.66L48.96 28.57L50.83 28.49C53.13 28.39 54.07 28.03 55.14 26.86C56.1 25.82 56.45 24.69 56.35 23.08C56.22 21.12 55.21 19.65 53.5 18.87C52.74 18.53 52.41 18.5 49.09 18.45L45.5 18.38L45.5 25.57ZM51.81 21.86C52.83 22.13 53.4 23.39 52.9 24.33C52.51 25.1 52.11 25.26 50.5 25.26L48.96 25.26L48.96 23.58C48.96 22.65 49.01 21.84 49.08 21.79C49.24 21.61 51.12 21.66 51.81 21.86Z" fill="#ECECEC" fill-opacity="1.000000" fill-rule="nonzero"/>
		<path id="Vector" d="M60.72 21.74C57.6 22.49 56.07 26.09 57.39 29.6C58.47 32.45 62.08 33.77 64.51 32.17L65.12 31.78L65.12 32.27L65.12 32.76L66.68 32.76L68.25 32.76L68.25 27.22L68.25 21.66L66.73 21.71L65.2 21.76L65.15 22.28L65.1 22.82L64.66 22.41C64.16 21.95 62.86 21.51 62.08 21.53C61.8 21.53 61.19 21.63 60.72 21.74ZM63.73 24.71C65 25.31 65.55 27.37 64.74 28.54C64.11 29.45 63.35 29.88 62.43 29.78C61 29.65 60.16 28.67 60.16 27.14C60.16 25.08 61.94 23.88 63.73 24.71Z" fill="#ECECEC" fill-opacity="1.000000" fill-rule="nonzero"/>
		<path id="Vector" d="M69.73 22.17C69.73 22.34 70.56 24.61 71.55 27.2L73.38 31.93L72.62 33.76C72.21 34.77 71.88 35.7 71.88 35.81C71.88 35.99 72.24 36.02 73.54 35.99L75.21 35.94L77.91 29.18C79.4 25.46 80.61 22.28 80.61 22.12C80.61 21.87 80.43 21.84 78.98 21.84L77.37 21.84L76.61 23.83C76.18 24.94 75.72 26.27 75.57 26.81C75.42 27.35 75.26 27.84 75.19 27.92C75.12 27.99 74.94 27.5 74.76 26.86C74.6 26.21 74.14 24.81 73.72 23.75L72.98 21.84L71.37 21.84C69.85 21.84 69.73 21.86 69.73 22.17Z" fill="#ECECEC" fill-opacity="1.000000" fill-rule="nonzero"/>
	</g>
</svg>
