<svg width="24" height="24" viewBox="0 0 24 24" fill="none" xmlns="http://www.w3.org/2000/svg">
<path d="M2.74209 0.0609365C1.9124 0.337499 1.39209 1.02656 1.21865 2.06719C1.15303 2.47969 1.15303 21.5203 1.21865 21.9328C1.36865 22.8516 1.80928 23.5125 2.4749 23.8266C2.7749 23.9719 2.8124 23.9766 3.3749 23.9766C3.99834 23.9766 4.3124 23.9062 4.8374 23.6437C5.11397 23.5031 20.9062 14.4516 21.3562 14.175C23.3062 12.9656 23.3062 11.0344 21.3562 9.825C20.953 9.57656 5.14209 0.510937 4.86084 0.370312C4.39209 0.126562 4.02646 0.037499 3.46865 0.018749C3.10303 0.00468655 2.86865 0.018749 2.74209 0.0609365Z" fill="white"/>
</svg>
