<svg width="28.000000" height="20.000000" viewBox="0 0 28 20" fill="none" xmlns="http://www.w3.org/2000/svg" xmlns:xlink="http://www.w3.org/1999/xlink">
	<desc>
			Created with Pixso.
	</desc>
	<defs/>
	<path id="Rectangle 5" d="M2.7 2.61L4.97 0.52C5.34 0.18 5.82 0 6.33 0L23 0C24.1 0 25 0.89 25 2L25 9.17C25 9.77 24.73 10.33 24.27 10.71L22.59 12.11L21.02 13.5C20.65 13.82 20.18 14 19.69 14L2 14C0.89 14 0 13.1 0 12L0 5.99C0 5.43 0.23 4.89 0.64 4.52L2.7 2.61Z" fill="#F90042" fill-opacity="1.000000" fill-rule="nonzero"/>
	<path id="Rectangle 4" d="M3.03 5.36L5.62 2.62C6 2.22 6.52 2 7.07 2L26 2C27.1 2 28 2.89 28 4L28 14.14C28 14.69 27.77 15.21 27.38 15.59L25.3 17.57L23.49 19.4C23.12 19.78 22.6 20 22.07 20L2 20C0.89 20 0 19.1 0 18L0 9.37C0 8.86 0.19 8.36 0.54 7.99L3.03 5.36Z" fill="#1E1B2E" fill-opacity="1.000000" fill-rule="nonzero"/>
	<rect id="Rectangle 6" x="9.000000" y="6.000000" width="9.000000" height="9.000000" fill="#FFFFFF" fill-opacity="1.000000"/>
	<path id="Subtract" d="M13.5 18C17.64 18 21 14.64 21 10.5C21 6.35 17.64 3 13.5 3C9.35 3 6 6.35 6 10.5C6 14.64 9.35 18 13.5 18ZM11.25 11.43C10.93 11.43 10.68 11.68 10.68 12C10.68 12.31 10.93 12.56 11.25 12.56L11.43 12.56L11.43 14.25C11.43 14.56 11.68 14.81 12 14.81C12.31 14.81 12.56 14.56 12.56 14.25L12.56 12.56L13.5 12.56C13.81 12.56 14.06 12.31 14.06 12C14.06 11.68 13.81 11.43 13.5 11.43L12.56 11.43L12.56 11.06L14.62 11.06C15.97 11.06 17.06 9.97 17.06 8.62C17.06 7.27 15.97 6.18 14.62 6.18L12.87 6.18C12.76 6.18 12.64 6.18 12.54 6.2C11.98 6.29 11.54 6.73 11.45 7.29C11.43 7.39 11.43 7.51 11.43 7.62L11.43 9.93L11.25 9.93C10.93 9.93 10.68 10.18 10.68 10.5C10.68 10.81 10.93 11.06 11.25 11.06L11.43 11.06L11.43 11.43L11.25 11.43ZM12.56 9.93L14.62 9.93C15.34 9.93 15.93 9.34 15.93 8.62C15.93 7.9 15.34 7.31 14.62 7.31L12.9 7.31C12.82 7.31 12.78 7.31 12.75 7.31C12.73 7.31 12.72 7.31 12.71 7.31C12.64 7.32 12.57 7.39 12.56 7.46C12.56 7.47 12.56 7.48 12.56 7.5C12.56 7.53 12.56 7.57 12.56 7.65L12.56 9.93Z" fill="#1E1B2E" fill-opacity="1.000000" fill-rule="evenodd"/>
</svg>
