<?xml version="1.0" encoding="UTF-8" standalone="no"?>
<svg
   width="14"
   height="14"
   viewBox="0 0 14 14"
   fill="none"
   version="1.1"
   id="svg2865"
   sodipodi:docname="copy.svg"
   inkscape:version="1.2.2 (b0a8486541, 2022-12-01)"
   xmlns:inkscape="http://www.inkscape.org/namespaces/inkscape"
   xmlns:sodipodi="http://sodipodi.sourceforge.net/DTD/sodipodi-0.dtd"
   xmlns="http://www.w3.org/2000/svg"
   xmlns:svg="http://www.w3.org/2000/svg">
  <defs
     id="defs2869" />
  <sodipodi:namedview
     id="namedview2867"
     pagecolor="#ffffff"
     bordercolor="#000000"
     borderopacity="0.25"
     inkscape:showpageshadow="2"
     inkscape:pageopacity="0.0"
     inkscape:pagecheckerboard="0"
     inkscape:deskcolor="#d1d1d1"
     showgrid="false"
     inkscape:zoom="62.714286"
     inkscape:cx="7.0079727"
     inkscape:cy="7"
     inkscape:window-width="1920"
     inkscape:window-height="1048"
     inkscape:window-x="0"
     inkscape:window-y="0"
     inkscape:window-maximized="1"
     inkscape:current-layer="svg2865" />
  <path
     style="color:#000000;fill:#8c8b8e;stroke-linecap:round;stroke-linejoin:round;-inkscape-stroke:none"
     d="M 9.3339844,0.25 C 8.0478904,0.25 7.0319471,0.40392372 6.2480469,0.97070313 5.4641467,1.5374825 5.084136,2.4706869 4.9667969,3.5878906 A 0.75,0.75 0 0 0 5.6347656,4.4121094 0.75,0.75 0 0 0 6.4589844,3.7441406 C 6.553195,2.8471464 6.763197,2.4485516 7.1269531,2.1855469 7.4907093,1.9225421 8.1816808,1.75 9.3339844,1.75 c 1.3250566,0 2.0062136,0.2151932 2.3535156,0.5625 0.347302,0.3473068 0.5625,1.028476 0.5625,2.3535156 0,1.1522952 -0.172535,1.843271 -0.435547,2.2070313 -0.263012,0.3637602 -0.6616,0.5737581 -1.558594,0.6679687 A 0.75,0.75 0 0 0 9.5878906,8.3652344 0.75,0.75 0 0 0 10.412109,9.0332031 C 11.529314,8.9158639 12.46251,8.5358518 13.029297,7.7519531 13.596084,6.9680545 13.75,5.952108 13.75,4.6660156 13.75,3.187138 13.533084,2.0370002 12.748047,1.2519531 11.96301,0.46690609 10.812885,0.25 9.3339844,0.25 Z M 4.6660156,4.9160156 c -1.4788812,0 -2.6290214,0.2169121 -3.4140625,1.0019531 C 0.46691208,6.7030098 0.25,7.8551032 0.25,9.3339844 0.25,10.812889 0.46690868,11.963008 1.2519531,12.748047 2.0369976,13.533086 3.187138,13.75 4.6660156,13.75 c 1.4788776,0 2.6309687,-0.216915 3.4160157,-1.001953 0.7850469,-0.785038 1.0019531,-1.935157 1.0019531,-3.4140626 0,-1.4788821 -0.2169096,-2.6309756 -1.0019531,-3.4160157 C 7.2969877,5.1329287 6.1448968,4.9160156 4.6660156,4.9160156 Z m 0,1.5 c 1.325036,0 2.0081585,0.2151912 2.3554688,0.5625 0.3473103,0.3473088 0.5625,1.0304337 0.5625,2.3554688 0,1.3250616 -0.2151931,2.0062126 -0.5625,2.3535156 C 6.6741775,12.034803 5.9910552,12.25 4.6660156,12.25 3.340976,12.25 2.6598044,12.034802 2.3125,11.6875 1.9651956,11.340198 1.75,10.659047 1.75,9.3339844 c 0,-1.325036 0.2151922,-2.008161 0.5625,-2.3554688 0.3473078,-0.3473078 1.0284796,-0.5625 2.3535156,-0.5625 z"
     id="path2863" />
</svg>
