<?xml version="1.0" encoding="UTF-8" standalone="no"?>
<svg
   width="16"
   height="16"
   viewBox="0 0 16 16"
   fill="none"
   version="1.1"
   id="svg2990"
   sodipodi:docname="cross.svg"
   inkscape:version="1.2.2 (b0a8486541, 2022-12-01)"
   xmlns:inkscape="http://www.inkscape.org/namespaces/inkscape"
   xmlns:sodipodi="http://sodipodi.sourceforge.net/DTD/sodipodi-0.dtd"
   xmlns="http://www.w3.org/2000/svg"
   xmlns:svg="http://www.w3.org/2000/svg">
  <defs
     id="defs2994" />
  <sodipodi:namedview
     id="namedview2992"
     pagecolor="#ffffff"
     bordercolor="#000000"
     borderopacity="0.25"
     inkscape:showpageshadow="2"
     inkscape:pageopacity="0.0"
     inkscape:pagecheckerboard="0"
     inkscape:deskcolor="#d1d1d1"
     showgrid="false"
     inkscape:zoom="54.875"
     inkscape:cx="8.0091116"
     inkscape:cy="8"
     inkscape:window-width="1920"
     inkscape:window-height="1048"
     inkscape:window-x="0"
     inkscape:window-y="0"
     inkscape:window-maximized="1"
     inkscape:current-layer="svg2990" />
  <path
     style="color:#000000;fill:#9a9999;stroke-linecap:round;stroke-linejoin:round;-inkscape-stroke:none"
     d="M 15,0.25 A 0.75,0.75 0 0 0 14.46875,0.46875 L 8,6.9375 1.53125,0.46875 a 0.75,0.75 0 0 0 -1.0625,0 0.75,0.75 0 0 0 0,1.0625 L 6.9375,8 0.46875,14.46875 a 0.75,0.75 0 0 0 0,1.0625 0.75,0.75 0 0 0 1.0625,0 L 8,9.0625 l 6.46875,6.46875 a 0.75,0.75 0 0 0 1.0625,0 0.75,0.75 0 0 0 0,-1.0625 L 9.0625,8 15.53125,1.53125 a 0.75,0.75 0 0 0 0,-1.0625 A 0.75,0.75 0 0 0 15,0.25 Z"
     id="path2988" />
</svg>
