<?xml version="1.0" encoding="UTF-8" standalone="no"?>
<svg
   width="16"
   height="20"
   viewBox="0 0 16 20"
   fill="none"
   version="1.1"
   id="svg3498"
   sodipodi:docname="location-filled.svg"
   inkscape:version="1.2.2 (b0a8486541, 2022-12-01)"
   xmlns:inkscape="http://www.inkscape.org/namespaces/inkscape"
   xmlns:sodipodi="http://sodipodi.sourceforge.net/DTD/sodipodi-0.dtd"
   xmlns="http://www.w3.org/2000/svg"
   xmlns:svg="http://www.w3.org/2000/svg">
  <defs
     id="defs3502" />
  <sodipodi:namedview
     id="namedview3500"
     pagecolor="#ffffff"
     bordercolor="#000000"
     borderopacity="0.25"
     inkscape:showpageshadow="2"
     inkscape:pageopacity="0.0"
     inkscape:pagecheckerboard="0"
     inkscape:deskcolor="#d1d1d1"
     showgrid="false"
     inkscape:zoom="43.9"
     inkscape:cx="7.6537585"
     inkscape:cy="10"
     inkscape:window-width="1920"
     inkscape:window-height="1048"
     inkscape:window-x="0"
     inkscape:window-y="0"
     inkscape:window-maximized="1"
     inkscape:current-layer="svg3498" />
  <path
     fill-rule="evenodd"
     clip-rule="evenodd"
     d="M8 0C3.58172 0 0 4.00258 0 8.5C0 12.9622 2.55332 17.8124 6.53707 19.6744C7.46574 20.1085 8.53426 20.1085 9.46293 19.6744C13.4467 17.8124 16 12.9622 16 8.5C16 4.00258 12.4183 0 8 0ZM8 10C9.10457 10 10 9.10457 10 8C10 6.89543 9.10457 6 8 6C6.89543 6 6 6.89543 6 8C6 9.10457 6.89543 10 8 10Z"
     fill="#F90042"
     id="path6735"
     style="fill-rule:evenodd" />
</svg>
