<?xml version="1.0" encoding="UTF-8" standalone="no"?>
<svg
   width="20"
   height="18"
   viewBox="0 0 20 18"
   fill="none"
   version="1.1"
   id="svg1218"
   sodipodi:docname="shape.svg"
   inkscape:version="1.2.2 (b0a8486541, 2022-12-01)"
   xmlns:inkscape="http://www.inkscape.org/namespaces/inkscape"
   xmlns:sodipodi="http://sodipodi.sourceforge.net/DTD/sodipodi-0.dtd"
   xmlns="http://www.w3.org/2000/svg"
   xmlns:svg="http://www.w3.org/2000/svg">
  <defs
     id="defs1222" />
  <sodipodi:namedview
     id="namedview1220"
     pagecolor="#ffffff"
     bordercolor="#000000"
     borderopacity="0.25"
     inkscape:showpageshadow="2"
     inkscape:pageopacity="0.0"
     inkscape:pagecheckerboard="0"
     inkscape:deskcolor="#d1d1d1"
     showgrid="false"
     inkscape:zoom="48.777778"
     inkscape:cx="9.9738041"
     inkscape:cy="9"
     inkscape:window-width="1920"
     inkscape:window-height="1048"
     inkscape:window-x="0"
     inkscape:window-y="0"
     inkscape:window-maximized="1"
     inkscape:current-layer="svg1218" />
  <path
     style="color:#000000;fill:#000104;stroke-linecap:round;stroke-linejoin:round;-inkscape-stroke:none;fill-opacity:1"
     d="M 12,0.25 A 0.75,0.75 0 0 0 11.25,1 0.75,0.75 0 0 0 12,1.75 h 3.5 c 0.600903,0 0.930196,0.1596367 1.220703,0.4589844 0.290507,0.2993477 0.532272,0.7958309 0.697266,1.46875 C 17.747957,5.0235724 17.75,6.9963958 17.75,9 c 0,2.003604 -0.002,3.976428 -0.332031,5.322266 -0.164994,0.672919 -0.406759,1.169402 -0.697266,1.46875 C 16.430196,16.090363 16.100903,16.25 15.5,16.25 H 12 A 0.75,0.75 0 0 0 11.25,17 0.75,0.75 0 0 0 12,17.75 h 3.5 c 0.927946,0 1.738224,-0.340364 2.296875,-0.916016 0.558651,-0.575651 0.875332,-1.32917 1.078125,-2.15625 C 19.280586,13.023575 19.25,10.996392 19.25,9 19.25,7.0036082 19.280586,4.9764246 18.875,3.3222656 18.672207,2.4951862 18.355526,1.7416671 17.796875,1.1660156 17.238224,0.5903642 16.427946,0.25 15.5,0.25 Z m -3,4 a 0.75,0.75 0 0 0 -0.53125,0.21875 0.75,0.75 0 0 0 0,1.0625 L 11.1875,8.25 H 1 A 0.75,0.75 0 0 0 0.25,9 0.75,0.75 0 0 0 1,9.75 h 10.1875 l -2.71875,2.71875 a 0.75,0.75 0 0 0 0,1.0625 0.75,0.75 0 0 0 1.0625,0 l 4,-4 A 0.75,0.75 0 0 0 13.724609,9.0625 0.75,0.75 0 0 0 13.75,9 a 0.75,0.75 0 0 0 -0.02539,-0.1289062 0.75,0.75 0 0 0 0,-0.064453 0.75,0.75 0 0 0 -0.01953,-0.033203 A 0.75,0.75 0 0 0 13.53125,8.46875 l -4,-4 A 0.75,0.75 0 0 0 9,4.25 Z"
     id="path1216" />
</svg>
