<?xml version="1.0" encoding="UTF-8" standalone="no"?>
<svg
   width="12"
   height="15"
   viewBox="0 0 12 15"
   fill="none"
   version="1.1"
   id="svg4250"
   sodipodi:docname="shield.svg"
   inkscape:version="1.2.2 (b0a8486541, 2022-12-01)"
   xmlns:inkscape="http://www.inkscape.org/namespaces/inkscape"
   xmlns:sodipodi="http://sodipodi.sourceforge.net/DTD/sodipodi-0.dtd"
   xmlns="http://www.w3.org/2000/svg"
   xmlns:svg="http://www.w3.org/2000/svg">
  <defs
     id="defs4254" />
  <sodipodi:namedview
     id="namedview4252"
     pagecolor="#ffffff"
     bordercolor="#000000"
     borderopacity="0.25"
     inkscape:showpageshadow="2"
     inkscape:pageopacity="0.0"
     inkscape:pagecheckerboard="0"
     inkscape:deskcolor="#d1d1d1"
     showgrid="false"
     inkscape:zoom="58.533333"
     inkscape:cx="5.7403189"
     inkscape:cy="7.5"
     inkscape:window-width="1920"
     inkscape:window-height="1048"
     inkscape:window-x="0"
     inkscape:window-y="0"
     inkscape:window-maximized="1"
     inkscape:current-layer="svg4250" />
  <path
     fill-rule="evenodd"
     clip-rule="evenodd"
     d="M0.251677 2.65769C0 3.03419 0 4.15335 0 6.39166V7.49395C0 11.4406 2.82597 13.3558 4.59904 14.1691C5.08001 14.3897 5.32049 14.5 6 14.5C6.67951 14.5 6.91999 14.3897 7.40096 14.1691C9.17402 13.3558 12 11.4406 12 7.49395V6.39166C12 4.15335 12 3.03419 11.7483 2.65769C11.4966 2.28118 10.4945 1.92097 8.49006 1.20056L8.10819 1.0633C7.06335 0.687767 6.54093 0.5 6 0.5C5.45907 0.5 4.93666 0.687767 3.89182 1.0633L3.50994 1.20055C1.50555 1.92097 0.503354 2.28118 0.251677 2.65769ZM8.03964 6.44966C8.22355 6.23337 8.20566 5.90149 7.99967 5.70838C7.79369 5.51527 7.47761 5.53406 7.2937 5.75034L5.28571 8.11173L4.7063 7.43034C4.52239 7.21406 4.20631 7.19527 4.00033 7.38838C3.79434 7.58149 3.77645 7.91337 3.96036 8.12966L4.91275 9.24966C5.00761 9.36122 5.14328 9.425 5.28571 9.425C5.42815 9.425 5.56382 9.36122 5.65868 9.24966L8.03964 6.44966Z"
     fill="#100E19"
     id="path4248"
     style="fill:#000000;fill-opacity:1" />
</svg>
