<?xml version="1.0" encoding="UTF-8" standalone="no"?>
<svg
   width="14"
   height="13"
   viewBox="0 0 14 13"
   fill="none"
   version="1.1"
   id="svg4629"
   sodipodi:docname="star-filled.svg"
   inkscape:version="1.2.2 (b0a8486541, 2022-12-01)"
   xmlns:inkscape="http://www.inkscape.org/namespaces/inkscape"
   xmlns:sodipodi="http://sodipodi.sourceforge.net/DTD/sodipodi-0.dtd"
   xmlns="http://www.w3.org/2000/svg"
   xmlns:svg="http://www.w3.org/2000/svg">
  <defs
     id="defs4633" />
  <sodipodi:namedview
     id="namedview4631"
     pagecolor="#ffffff"
     bordercolor="#000000"
     borderopacity="0.25"
     inkscape:showpageshadow="2"
     inkscape:pageopacity="0.0"
     inkscape:pagecheckerboard="0"
     inkscape:deskcolor="#d1d1d1"
     showgrid="false"
     inkscape:zoom="67.538462"
     inkscape:cx="7.01082"
     inkscape:cy="6.5"
     inkscape:window-width="1920"
     inkscape:window-height="1048"
     inkscape:window-x="0"
     inkscape:window-y="0"
     inkscape:window-maximized="1"
     inkscape:current-layer="svg4629" />
  <g
     id="path4627">
    <path
       style="color:#000000;fill:#f90042;-inkscape-stroke:none"
       d="M 7,1.17067 8.55166,4.45561 8.66865,4.7033 8.94037,4.73803 12.544,5.19864 9.89934,7.68946 9.69994,7.87726 9.75087,8.14641 10.4264,11.716 7.24023,9.97049 7,9.83888 6.75977,9.97049 3.57361,11.716 4.24913,8.14641 4.30006,7.87726 4.10066,7.68946 1.45598,5.19864 5.05963,4.73803 5.33135,4.7033 5.44834,4.45561 Z"
       id="path12779" />
    <path
       style="color:#000000;fill:#f90042;-inkscape-stroke:none"
       d="M 7,0 6.5488281,0.95703125 4.9960937,4.2421875 0.34179688,4.8359375 3.7578125,8.0527344 2.8847656,12.664063 7,10.408203 l 4.115234,2.25586 -0.873046,-4.6113286 3.416015,-3.2167969 -4.6542967,-0.59375 z m 0,2.3398438 1.0996094,2.3300781 0.234375,0.4941406 0.5429687,0.070312 2.5527349,0.3261719 -1.8730474,1.765625 -0.3984375,0.375 L 9.2597656,8.2402344 9.7382813,10.769531 7.4804687,9.53125 7,9.2695313 6.5195312,9.53125 4.2617187,10.769531 4.7402344,8.2402344 4.8417969,7.7011719 4.4433594,7.3261719 2.5703125,5.5605469 5.1230469,5.234375 5.6660156,5.1640625 5.9003906,4.6699219 Z"
       id="path12781" />
  </g>
</svg>
