<svg width="18" height="19" viewBox="0 0 18 19" fill="none" xmlns="http://www.w3.org/2000/svg">
<path d="M17.1764 6.41562C17.8821 8.31108 17.918 10.3909 17.2781 12.3096C16.6382 14.2283 15.3611 15.8702 13.6589 16.9627C11.9567 18.0551 9.932 18.5322 7.92117 18.3147C5.91033 18.0972 4.03444 17.1983 2.6052 15.7672C0.99972 14.167 0.0686725 12.0123 0.00364944 9.74646C-0.0613736 7.48065 0.744575 5.27609 2.25564 3.58647C3.76671 1.89684 5.86794 0.850686 8.12693 0.663283C10.3859 0.475879 12.6308 1.16149 14.3996 2.57901L16.0485 0.929365C16.14 0.837799 16.2487 0.765165 16.3684 0.71561C16.488 0.666054 16.6162 0.640549 16.7457 0.640549C16.8752 0.640549 17.0035 0.666054 17.1231 0.71561C17.2427 0.765165 17.3514 0.837799 17.443 0.929365C17.5346 1.02093 17.6072 1.12964 17.6568 1.24927C17.7063 1.36891 17.7318 1.49714 17.7318 1.62663C17.7318 1.75613 17.7063 1.88435 17.6568 2.00399C17.6072 2.12363 17.5346 2.23233 17.443 2.3239L9.56801 10.1989C9.47644 10.2905 9.36774 10.3631 9.2481 10.4127C9.12846 10.4622 9.00024 10.4877 8.87074 10.4877C8.74125 10.4877 8.61302 10.4622 8.49339 10.4127C8.37375 10.3631 8.26505 10.2905 8.17348 10.1989C8.08191 10.1073 8.00928 9.99863 7.95972 9.87899C7.91017 9.75935 7.88466 9.63113 7.88466 9.50163C7.88466 9.37214 7.91017 9.24391 7.95972 9.12427C8.00928 9.00464 8.08191 8.89593 8.17348 8.80437L10.1422 6.83562C9.58735 6.57051 8.96355 6.48524 8.35789 6.59171C7.75222 6.69818 7.1949 6.99106 6.76369 7.4295C6.33248 7.86794 6.0489 8.43006 5.95252 9.03741C5.85614 9.64477 5.95177 10.2671 6.22607 10.8175C6.50036 11.3678 6.93963 11.8189 7.48259 12.1076C8.02555 12.3963 8.64509 12.5084 9.25478 12.4281C9.86447 12.3478 10.4339 12.0791 10.8836 11.6597C11.3332 11.2402 11.6407 10.6908 11.7632 10.0882C11.8147 9.83219 11.9659 9.6072 12.1833 9.46267C12.4008 9.31814 12.6667 9.26591 12.9227 9.31747C13.1786 9.36903 13.4036 9.52016 13.5482 9.73761C13.6927 9.95506 13.7449 10.221 13.6934 10.477C13.4837 11.5099 12.948 12.4482 12.165 13.1538C11.3821 13.8595 10.3934 14.2952 9.34431 14.3968C8.29524 14.4984 7.24126 14.2605 6.3375 13.7182C5.43373 13.1759 4.72791 12.3578 4.32392 11.3844C3.91992 10.4109 3.8391 9.33344 4.09333 8.31058C4.34756 7.28772 4.92343 6.37349 5.73617 5.70244C6.54892 5.03138 7.55561 4.63895 8.6081 4.58289C9.66059 4.52683 10.7033 4.81012 11.5827 5.39105L12.9961 3.98257C11.6684 2.99102 10.0279 2.51112 8.37514 2.63083C6.7224 2.75054 5.16814 3.46183 3.99721 4.63435C2.82628 5.80687 2.1171 7.36209 1.99963 9.015C1.88217 10.6679 2.36429 12.3078 3.35764 13.6341C4.35099 14.9604 5.78903 15.8844 7.40824 16.2366C9.02745 16.5888 10.7194 16.3458 12.1739 15.5519C13.6285 14.7581 14.7482 13.4667 15.328 11.9144C15.9078 10.362 15.9088 8.65274 15.3307 7.09976C15.2847 6.97834 15.2631 6.84902 15.2673 6.71925C15.2715 6.58947 15.3013 6.4618 15.355 6.3436C15.4088 6.22539 15.4853 6.11898 15.5804 6.0305C15.6754 5.94201 15.787 5.8732 15.9087 5.82803C16.0304 5.78285 16.1599 5.7622 16.2896 5.76727C16.4194 5.77235 16.5468 5.80304 16.6647 5.85758C16.7825 5.91212 16.8884 5.98943 16.9762 6.08506C17.064 6.18069 17.1321 6.29276 17.1764 6.4148V6.41562Z" fill="#F90042"/>
</svg>
