<?xml version="1.0" encoding="UTF-8" standalone="no"?>
<svg
   width="14"
   height="15"
   viewBox="0 0 14 15"
   fill="none"
   version="1.1"
   id="svg4879"
   sodipodi:docname="trash.svg"
   inkscape:version="1.2.2 (b0a8486541, 2022-12-01)"
   xmlns:inkscape="http://www.inkscape.org/namespaces/inkscape"
   xmlns:sodipodi="http://sodipodi.sourceforge.net/DTD/sodipodi-0.dtd"
   xmlns="http://www.w3.org/2000/svg"
   xmlns:svg="http://www.w3.org/2000/svg">
  <defs
     id="defs4883" />
  <sodipodi:namedview
     id="namedview4881"
     pagecolor="#ffffff"
     bordercolor="#000000"
     borderopacity="0.25"
     inkscape:showpageshadow="2"
     inkscape:pageopacity="0.0"
     inkscape:pagecheckerboard="0"
     inkscape:deskcolor="#d1d1d1"
     showgrid="false"
     inkscape:zoom="58.533333"
     inkscape:cx="6.9789294"
     inkscape:cy="7.5"
     inkscape:window-width="1920"
     inkscape:window-height="1048"
     inkscape:window-x="0"
     inkscape:window-y="0"
     inkscape:window-maximized="1"
     inkscape:current-layer="svg4879" />
  <path
     style="color:#000000;fill:#020006;stroke-linecap:round;stroke-linejoin:round;-inkscape-stroke:none;fill-opacity:1"
     d="M 7,0.25 C 6.4469097,0.25 5.7903927,0.27467284 5.1621094,0.58203125 4.533826,0.88938966 4,1.6244405 4,2.5292969 v 0.015625 H 2.5 1 a 0.75,0.75 0 0 0 -0.75,0.75 0.75,0.75 0 0 0 0.75,0.75 H 1.7324219 C 1.6901187,6.0865514 1.522247,8.4256918 1.9433594,10.478516 2.1787941,11.626205 2.6143936,12.700413 3.4453125,13.498047 4.2762314,14.295681 5.4775194,14.75 7,14.75 c 1.5224851,0 2.7237664,-0.454319 3.554688,-1.251953 0.830921,-0.797634 1.266518,-1.871842 1.501953,-3.019531 0.421112,-2.0528247 0.253241,-4.391965 0.210937,-6.4335941 H 13 a 0.75,0.75 0 0 0 0.75,-0.75 0.75,0.75 0 0 0 -0.75,-0.75 H 11.5 10 V 2.5292969 C 10,1.6244405 9.466174,0.88938966 8.8378906,0.58203125 8.2096073,0.27467284 7.5530903,0.25 7,0.25 Z m 0,1.5 c 0.4689287,0 0.9365236,0.061686 1.1777344,0.1796875 C 8.4189452,2.0476887 8.5,2.0767746 8.5,2.5292969 v 0.015625 h -3 V 2.5292969 C 5.5,2.0767746 5.5810548,2.0476887 5.8222656,1.9296875 6.0634764,1.8116863 6.5310713,1.75 7,1.75 Z M 3.2363281,4.0449219 H 4.75 h 4.5 1.513672 c 0.03562,2.1117573 0.179999,4.3965151 -0.175781,6.1308591 -0.198729,0.968755 -0.541308,1.730547 -1.072266,2.240235 C 8.9846665,12.925703 8.2408671,13.25 7,13.25 5.7591384,13.25 5.0153319,12.925703 4.484375,12.416016 3.9534181,11.906328 3.6108379,11.144536 3.4121094,10.175781 3.0563292,8.4414365 3.2007055,6.1566788 3.2363281,4.0449219 Z M 5.2578125,5.2617187 A 0.75,0.75 0 0 0 4.8261719,5.640625 c 0,0 -0.4511719,0.9729862 -0.4511719,2.625 0,1.6520046 0.4511719,2.623047 0.4511719,2.623047 a 0.75,0.75 0 0 0 1.0039062,0.34375 0.75,0.75 0 0 0 0.34375,-1.003906 c 0,0 -0.2988281,-0.5560787 -0.2988281,-1.962891 0,-1.4068231 0.2988281,-1.9648438 0.2988281,-1.9648438 A 0.75,0.75 0 0 0 5.8300781,5.296875 0.75,0.75 0 0 0 5.2578125,5.2617187 Z m 3.484375,0 a 0.75,0.75 0 0 0 -0.5722656,0.035156 0.75,0.75 0 0 0 -0.34375,1.0039062 c 0,0 0.2988281,0.5580207 0.2988281,1.9648438 0,1.4068123 -0.2988281,1.962891 -0.2988281,1.962891 a 0.75,0.75 0 0 0 0.34375,1.003906 0.75,0.75 0 0 0 1.0039062,-0.34375 c 0,0 0.4511719,-0.9710424 0.4511719,-2.623047 0,-1.6520138 -0.4511719,-2.625 -0.4511719,-2.625 A 0.75,0.75 0 0 0 8.7421875,5.2617187 Z"
     id="path4877" />
</svg>
