<?xml version="1.0" encoding="UTF-8" standalone="no"?>
<svg
   width="14.05"
   height="14"
   viewBox="0 0 14.05 14"
   fill="none"
   version="1.1"
   id="svg8"
   sodipodi:docname="user-plus-filled.svg"
   inkscape:version="1.2.2 (b0a8486541, 2022-12-01)"
   xmlns:inkscape="http://www.inkscape.org/namespaces/inkscape"
   xmlns:sodipodi="http://sodipodi.sourceforge.net/DTD/sodipodi-0.dtd"
   xmlns="http://www.w3.org/2000/svg"
   xmlns:svg="http://www.w3.org/2000/svg">
  <sodipodi:namedview
     id="namedview5007"
     pagecolor="#ffffff"
     bordercolor="#000000"
     borderopacity="0.25"
     inkscape:showpageshadow="2"
     inkscape:pageopacity="0.0"
     inkscape:pagecheckerboard="0"
     inkscape:deskcolor="#d1d1d1"
     showgrid="false"
     inkscape:zoom="62.714286"
     inkscape:cx="7.0398633"
     inkscape:cy="7"
     inkscape:window-width="1920"
     inkscape:window-height="1048"
     inkscape:window-x="0"
     inkscape:window-y="0"
     inkscape:window-maximized="1"
     inkscape:current-layer="svg8" />
  <defs
     id="defs12" />
  <circle
     cx="5.5998001"
     cy="2.8"
     r="2.8"
     fill="#100e19"
     id="circle2" />
  <path
     d="M 11.2,10.85 C 11.2,12.5897 11.2,14 5.6,14 0,14 0,12.5897 0,10.85 0,9.1103 2.50721,7.7 5.6,7.7 c 3.09279,0 5.6,1.4103 5.6,3.15 z"
     fill="#100e19"
     id="path4" />
  <g
     id="path6">
    <path
       style="color:#000000;fill:#100e19;stroke-width:1.5;stroke-linecap:round;-inkscape-stroke:none"
       d="m 13.3,5.60001 h -1.4 m 0,0 h -1.4 m 1.4,0 V 4.2 m 0,1.40001 V 7"
       id="path5862" />
    <path
       style="color:#000000;fill:#100e19;stroke-linecap:round;-inkscape-stroke:none"
       d="m 11.900391,3.4492188 a 0.75,0.75 0 0 0 -0.75,0.7499999 V 4.8496094 H 10.5 a 0.75,0.75 0 0 0 -0.75,0.75 0.75,0.75 0 0 0 0.75,0.75 h 0.650391 V 7 a 0.75,0.75 0 0 0 0.75,0.75 0.75,0.75 0 0 0 0.75,-0.75 V 6.3496094 h 0.65039 a 0.75,0.75 0 0 0 0.75,-0.75 0.75,0.75 0 0 0 -0.75,-0.75 h -0.65039 V 4.1992187 a 0.75,0.75 0 0 0 -0.75,-0.7499999 z"
       id="path5864" />
  </g>
</svg>
